<svg xmlns="http://www.w3.org/2000/svg" width="1440" height="820" viewBox="0 0 1440 820">
  <rect width="1440" height="820" fill="#f8fafc"/><rect width="1440" height="74" fill="#fff"/><text x="70" y="46" font-family="Georgia" font-weight="700" font-size="28" fill="#114f75">VMControl</text><text x="1368" y="43" text-anchor="end" font-family="Arial" font-size="13" fill="#526b7f">Administrator</text><rect y="74" width="1440" height="48" fill="#0b557d"/><text x="70" y="104" font-family="Arial" font-size="13" fill="#fff">Clients     Orders     Billing     Addons / VMControl</text>
  <text x="160" y="164" font-family="Arial" font-size="25" font-weight="700" fill="#0b5681">Server mapping management</text><text x="160" y="190" font-family="Arial" font-size="13" fill="#748596">Assign, transfer, disable, or unlink access without modifying the vCenter VM.</text>
  <g font-family="Arial"><g transform="translate(160 214)"><rect width="262" height="82" rx="8" fill="#fff" stroke="#d8e3eb"/><text x="18" y="37" font-size="24" font-weight="700" fill="#0f5f8f">18</text><text x="18" y="62" font-size="12" fill="#718090">Saved mappings</text></g><g transform="translate(442 214)"><rect width="262" height="82" rx="8" fill="#fff" stroke="#d8e3eb"/><text x="18" y="37" font-size="24" font-weight="700" fill="#0f5f8f">42</text><text x="18" y="62" font-size="12" fill="#718090">Eligible services</text></g><g transform="translate(724 214)"><rect width="262" height="82" rx="8" fill="#fff" stroke="#d8e3eb"/><text x="18" y="37" font-size="24" font-weight="700" fill="#0f5f8f">37</text><text x="18" y="62" font-size="12" fill="#718090">Visible VMs</text></g><g transform="translate(1006 214)"><rect width="274" height="82" rx="8" fill="#fff" stroke="#d8e3eb"/><text x="18" y="37" font-size="24" font-weight="700" fill="#0f5f8f">6</text><text x="18" y="62" font-size="12" fill="#718090">Exact IP suggestions</text></g></g>
  <rect x="160" y="316" width="1120" height="286" rx="9" fill="#fff" stroke="#d8e3eb"/><rect x="160" y="316" width="1120" height="66" rx="9" fill="#f5f9fb"/><text x="180" y="343" font-family="Arial" font-size="16" font-weight="700" fill="#173650">IP match suggestions — administrator confirmation required</text><text x="180" y="365" font-family="Arial" font-size="12" fill="#6f8190">Nothing is assigned automatically. Every suggestion is revalidated against live inventory before saving.</text>
  <rect x="160" y="382" width="1120" height="44" fill="#eef3f7"/><g font-family="Arial" font-size="13" font-weight="700" fill="#284762"><text x="180" y="410">Matching IP</text><text x="390" y="410">WHMCS service</text><text x="740" y="410">Suggested VM</text><text x="1100" y="410">Approval</text></g>
  <g font-family="Arial" font-size="13"><path d="M160 482h1120M160 538h1120" stroke="#e4ebf0"/><text x="180" y="459" font-weight="700">198.51.100.21</text><text x="390" y="453" font-weight="700">#1301 — Demo Customer One</text><text x="390" y="472" font-size="11" fill="#789">Active / Cloud VPS</text><text x="740" y="453" font-weight="700">customer-vm-001</text><text x="740" y="472" font-size="11" fill="#789">primary</text><rect x="1080" y="439" width="146" height="32" rx="4" fill="#43b75d"/><text x="1153" y="460" text-anchor="middle" fill="#fff" font-weight="700">Confirm &amp; save</text>
  <text x="180" y="515" font-weight="700">198.51.100.22</text><text x="390" y="509" font-weight="700">#1302 — Example Company</text><text x="390" y="528" font-size="11" fill="#789">Active / Cloud VPS</text><text x="740" y="509" font-weight="700">customer-vm-002</text><text x="740" y="528" font-size="11" fill="#789">primary</text><rect x="1080" y="495" width="146" height="32" rx="4" fill="#43b75d"/><text x="1153" y="516" text-anchor="middle" fill="#fff" font-weight="700">Confirm &amp; save</text>
  <text x="180" y="571" font-weight="700">198.51.100.23</text><text x="390" y="565" font-weight="700">#1303 — Demo Customer Three</text><text x="390" y="584" font-size="11" fill="#a86a00">Suspended / Cloud VPS</text><text x="740" y="565" font-weight="700">customer-vm-003</text><text x="740" y="584" font-size="11" fill="#789">primary</text><rect x="1080" y="551" width="146" height="32" rx="4" fill="#43b75d"/><text x="1153" y="572" text-anchor="middle" fill="#fff" font-weight="700">Confirm &amp; save</text></g>
  <rect x="160" y="622" width="1120" height="150" rx="9" fill="#fff" stroke="#d8e3eb"/><rect x="160" y="622" width="1120" height="56" rx="9" fill="#f5f9fb"/><text x="180" y="656" font-family="Arial" font-size="16" font-weight="700" fill="#173650">Current mappings</text><g font-family="Arial" font-size="12"><text x="180" y="714" font-weight="700">#1201 — Demo Customer</text><text x="440" y="714">203.0.113.10</text><rect x="620" y="696" width="82" height="25" rx="13" fill="#e8f7ef"/><text x="661" y="713" text-anchor="middle" fill="#087443" font-weight="700">Matched</text><text x="770" y="714">customer-db-01</text><rect x="1080" y="694" width="135" height="30" rx="4" fill="#fff" stroke="#1688d4"/><text x="1147" y="714" text-anchor="middle" fill="#0876bd" font-weight="700">Edit / transfer</text></g>
  <text x="160" y="800" font-family="Arial" font-size="11" fill="#758596">Synthetic demonstration data — no production customer, IP, UUID, or inventory value is shown.</text>
</svg>
